<svg width="865" height="714" viewBox="0 0 865 714" fill="none" xmlns="http://www.w3.org/2000/svg">
<path d="M622.978 32.4615C677.697 69.1189 698.217 142.434 741.744 210.585C784.648 278.221 850.56 341.21 862.997 409.878C874.811 479.062 833.15 554.442 770.347 613.817C706.922 673.192 622.356 716.561 539.655 713.463C456.955 709.849 376.119 659.768 279.117 641.697C182.737 623.627 70.189 637.567 26.0405 599.877C-18.108 562.187 6.14259 472.867 11.1171 395.938C16.7134 319.009 3.03355 253.955 24.1751 196.129C44.6948 137.787 99.4141 87.1894 165.948 55.1787C232.481 23.168 311.451 10.2605 394.774 3.54855C478.718 -3.16337 567.637 -3.67965 622.978 32.4615Z" fill="#219653"/>
</svg>
